<svg version="1.1" xmlns="http://www.w3.org/2000/svg" xmlns:xlink="http://www.w3.org/1999/xlink" preserveAspectRatio="xMidYMid meet" viewBox="679 230 67 126"><g data-item-type="image" data-item="Image" data-logo-item="" id="logo__item--logo_0" class="logo__item">
    <g class="logo__item__inner" transform="translate(641.4386439029715 221.5) scale(1.4027512354731793 1.4027512354731793) rotate(0 0 0)">
        
<g>
	<path fill="#ffffff" d="M69.92,27.073c-1.106,0-2.003,0.899-2.003,2.008v22.407L55.955,75.861   c-4.546-2.357-8.854-1.158-11.124-0.156L33.608,52.123V28.328c0-1.112-0.896-2.008-2.008-2.008c-1.109,0-2.008,0.896-2.008,2.008   v24.25c0,0.297,0.064,0.594,0.192,0.861L48.51,92.771c0.332,0.699,1.03,1.141,1.804,1.146c0,0,0,0,0.012,0   c0.763,0,1.467-0.436,1.799-1.123L71.73,52.834c0.134-0.273,0.203-0.576,0.203-0.885V29.082   C71.934,27.973,71.037,27.073,69.92,27.073z" data-part-id="logo__item--logo_0__0"></path>
	<polyline fill="#1B75BB" points="51.199,29.582 29.467,14.631 41.775,36.494 51.328,29.082" data-part-id="logo__item--logo_0__1"></polyline>
	<polyline fill="#1B75BB" points="50.943,29.407 72.563,14.631 60.245,36.494" data-part-id="logo__item--logo_0__2"></polyline>
	<path fill="#1B75BB" d="M53.086,34.608c0,1.249-1.014,2.258-2.259,2.258c-1.252,0-2.265-1.01-2.265-2.258   c0-1.246,1.013-2.264,2.265-2.264C52.072,32.344,53.086,33.363,53.086,34.608z" data-part-id="logo__item--logo_0__3"></path>
	<path fill="#ffffff" d="M35.596,15.612c0,0,13.542-6.083,30.22,0.41l4.255-2.637c0,0-17.999-11.031-37.685-0.37" data-part-id="logo__item--logo_0__4"></path>
</g>

    </g>
</g><g data-item-type="text" data-item="Business" id="logo__item--business" class="logo__item">
                <g class="logo__item__inner" transform="translate(668.390625 280.4297009027614) scale(1.0296387774004323 1.0296387774004323) rotate(0 0 0)">
                    <text data-part-id="logo__item--business" dy="0" dominant-baseline="auto" alignment-baseline="auto" font-family="Montserrat" font-size="32px" fill="#07070f" letter-spacing="2" font-weight="bold" font-style="normal" data-font-family="Montserrat" data-font-weight="bold" data-font-style="normal" data-ttf-url="/builder_assets/fontsttf/font-montserrat-bold-normal.ttf" data-font-filename="montserrat-bold-normal"></text>
                </g>
            </g></svg>